<svg xmlns="http://www.w3.org/2000/svg" xmlns:xlink="http://www.w3.org/1999/xlink" width="500" zoomAndPan="magnify" viewBox="0 0 375 374.999991" height="500" preserveAspectRatio="xMidYMid meet" version="1.0"><defs><clipPath id="cab2a94244"><path d="M 16.699219 16.699219 L 357.949219 16.699219 L 357.949219 357.949219 L 16.699219 357.949219 Z M 16.699219 16.699219 " clip-rule="nonzero"/></clipPath></defs><g clip-path="url(#cab2a94244)"><path fill="#000000" d="M 357.949219 40.886719 C 357.949219 27.5625 347.089844 16.714844 333.75 16.714844 C 323.984375 16.714844 315.238281 22.53125 311.457031 31.546875 L 289.699219 83.515625 C 283.21875 77.414062 274.757812 73.5625 265.527344 73.5625 L 52.246094 73.5625 C 32.65625 73.5625 16.699219 89.515625 16.699219 109.109375 L 16.699219 322.390625 C 16.699219 341.984375 32.65625 357.9375 52.246094 357.9375 L 265.527344 357.9375 C 285.121094 357.9375 301.074219 341.984375 301.074219 322.390625 L 301.074219 166.765625 L 355.675781 51.578125 C 357.167969 48.410156 357.949219 44.882812 357.949219 40.886719 Z M 286.855469 322.390625 C 286.855469 334.148438 277.289062 343.71875 265.527344 343.71875 L 52.246094 343.71875 C 40.488281 343.71875 30.917969 334.148438 30.917969 322.390625 L 30.917969 109.109375 C 30.917969 97.351562 40.488281 87.78125 52.246094 87.78125 L 265.527344 87.78125 C 273.023438 87.78125 279.734375 91.847656 283.574219 98.160156 L 258.417969 158.277344 L 258.417969 123.328125 C 258.417969 119.402344 255.234375 116.21875 251.308594 116.21875 L 66.464844 116.21875 C 62.542969 116.21875 59.355469 119.402344 59.355469 123.328125 L 59.355469 180.203125 C 59.355469 184.125 62.542969 187.3125 66.464844 187.3125 L 246.261719 187.3125 L 240.304688 201.53125 L 180.214844 201.53125 C 176.292969 201.53125 173.105469 204.714844 173.105469 208.640625 L 173.105469 293.953125 C 173.105469 294.136719 173.191406 294.292969 173.207031 294.480469 C 167.363281 299.667969 163.78125 301.402344 163.523438 301.503906 C 161.277344 302.339844 159.597656 304.234375 159.058594 306.578125 C 158.519531 308.96875 159.230469 311.46875 160.964844 313.203125 C 171.257812 323.5 185.464844 327.421875 199.355469 327.421875 C 217.113281 327.421875 234.332031 320.996094 242.097656 313.203125 C 253.273438 302.027344 261.460938 279.875 255.277344 263.367188 L 286.855469 196.765625 Z M 196.496094 253.402344 C 192.074219 257.824219 189.332031 262.414062 187.324219 266.867188 L 187.324219 215.761719 L 234.363281 215.761719 L 223.457031 241.8125 C 213.957031 241.640625 204.417969 245.464844 196.496094 253.402344 Z M 187.011719 301.089844 C 192.957031 295.132812 195.0625 288.277344 197.082031 281.652344 C 199.042969 275.199219 200.90625 269.082031 206.5625 263.425781 C 216.617188 253.371094 229.113281 253.371094 239.167969 263.425781 C 248.167969 272.425781 241.300781 293.894531 232.058594 303.136719 C 224.351562 310.832031 196.953125 318.253906 178.566406 308.640625 C 181.011719 306.734375 183.828125 304.273438 187.011719 301.089844 Z M 245.679688 250.429688 C 243.050781 248.296875 240.332031 246.476562 237.488281 245.140625 L 256.628906 199.398438 L 267.378906 204.671875 Z M 244.199219 130.4375 L 244.199219 173.09375 L 73.574219 173.09375 L 73.574219 130.4375 Z M 342.808594 45.523438 L 273.449219 191.832031 L 262.117188 186.273438 L 298.160156 100.136719 L 324.566406 37.035156 C 326.117188 33.324219 329.726562 30.933594 333.765625 30.933594 C 339.253906 30.933594 343.71875 35.398438 343.71875 41.371094 C 343.71875 42.792969 343.40625 44.257812 342.808594 45.523438 Z M 342.808594 45.523438 " fill-opacity="1" fill-rule="nonzero"/></g><path fill="#000000" d="M 137.558594 201.53125 L 66.464844 201.53125 C 62.542969 201.53125 59.355469 204.714844 59.355469 208.640625 L 59.355469 308.171875 C 59.355469 312.097656 62.542969 315.28125 66.464844 315.28125 L 137.558594 315.28125 C 141.484375 315.28125 144.667969 312.09375 144.667969 308.171875 L 144.667969 208.640625 C 144.667969 204.714844 141.484375 201.53125 137.558594 201.53125 Z M 130.449219 301.0625 L 73.574219 301.0625 L 73.574219 215.75 L 130.449219 215.75 Z M 130.449219 301.0625 " fill-opacity="1" fill-rule="nonzero"/></svg>